<svg width="43" height="48" viewBox="0 0 43 48" fill="none" xmlns="http://www.w3.org/2000/svg">
<path d="M32.9025 0.832031C31.4242 0.932294 29.9849 1.28635 28.671 1.87291C27.357 2.45947 26.1957 3.26644 25.2565 4.24541C23.3887 6.213 22.0745 8.51968 21.4149 10.9882C19.9867 15.7144 20.9471 21.2703 22.5723 25.9545C28.5439 24.085 32.1761 18.6026 33.8136 15.7459C36.4116 11.1982 37.8644 1.64074 32.9025 0.832031Z" fill="#FFF73D"/>
<path d="M14.0149 31.7309C14.9031 30.537 15.4051 29.1638 15.47 27.7508C15.5349 26.3379 15.1603 24.9354 14.3842 23.6859C13.5805 22.4513 12.4972 21.3653 11.1973 20.4909C9.89743 19.6164 8.40682 18.971 6.81205 18.5921C6.10016 18.3485 5.33431 18.2411 4.56846 18.2774C3.80262 18.3137 3.05543 18.4928 2.37955 18.8022C1.81589 19.1777 1.37887 19.6739 1.11287 20.2402C0.846865 20.8065 0.761358 21.4228 0.865098 22.0265C1.10536 23.2346 1.71243 24.368 2.62581 25.3138C5.5685 28.6536 9.13912 31.4263 14.0149 31.7309" fill="#FFF73D"/>
<path d="M13.9647 47.9471C14.1199 47.6286 14.2194 47.2924 14.2602 46.9493C14.408 46.3087 14.605 45.3634 14.802 44.1976C15.3765 41.1518 15.4718 38.0541 15.0852 34.9868C14.6599 31.8848 13.2604 28.9383 11.0344 26.4586C10.3453 25.7225 9.55119 25.0627 8.67039 24.4946C8.36534 24.2708 8.02033 24.09 7.64844 23.959C8.73767 24.803 9.7464 25.7196 10.665 26.7002C12.7343 29.1847 14.0345 32.0748 14.4449 35.1023C14.8164 38.1275 14.7834 41.1788 14.3464 44.1976C14.1357 45.4402 14.0082 46.6921 13.9647 47.9471V47.9471Z" fill="#455A64"/>
<path d="M31.0421 8.02637C30.7037 8.5097 30.4114 9.01546 30.168 9.53876C29.6262 10.526 28.9367 11.9649 28.0009 13.7398C26.2156 17.3107 23.8393 22.289 21.3768 27.8449C18.9143 33.4009 16.8335 38.4737 15.4053 42.1601C14.6912 44.0086 14.174 45.5105 13.7554 46.5502C13.5351 47.081 13.3623 47.6252 13.2383 48.1782C13.5467 47.6782 13.7982 47.1542 13.9893 46.6132C14.4695 45.5 15.0851 44.0506 15.8362 42.2861C17.3753 38.6312 19.5299 33.5899 21.9924 28.034C24.4549 22.4781 26.7574 17.5313 28.4319 13.8869L30.4019 9.60177C30.6745 9.09551 30.8889 8.56791 31.0421 8.02637Z" fill="#455A64"/>
<path d="M20.2322 36.373C22.2029 33.9119 24.8321 31.8864 27.9022 30.4637C30.9724 29.041 34.3954 28.2622 37.8884 28.1914C39.6614 28.1914 41.7668 28.538 42.4686 29.9243C43.1704 31.3107 42.013 32.9071 40.7818 33.9574C38.0628 36.112 34.657 37.532 30.9936 38.0385C27.3302 38.5449 23.573 38.1153 20.1953 36.8036" fill="#FFF73D"/>
<path d="M34.8467 31.9093C34.4631 31.8596 34.0729 31.8596 33.6893 31.9093C33.2383 31.9299 32.7897 31.979 32.3473 32.0564C31.7587 32.1317 31.1751 32.2334 30.5989 32.361C29.0833 32.6879 27.6105 33.1454 26.2034 33.7263C24.4919 34.4519 22.8742 35.3284 21.3769 36.3415C19.9057 37.3835 18.5684 38.5559 17.3876 39.8389C16.437 40.8973 15.6121 42.0336 14.9251 43.2313C14.6535 43.6839 14.415 44.1504 14.211 44.6281C14.035 44.9691 13.8869 45.32 13.7677 45.6784C13.629 45.9844 13.5459 46.3067 13.5215 46.6342C13.6446 46.6342 14.0879 45.3213 15.3314 43.3573C16.0403 42.2166 16.8642 41.1307 17.7939 40.112C20.1342 37.6184 23.0729 35.5808 26.4127 34.1359C27.7709 33.5487 29.1885 33.0671 30.6482 32.697C33.2215 32.1194 34.859 32.0144 34.8467 31.9093Z" fill="#455A64"/>
</svg>
